[img]http://img836.imageshack.us/img836/1954/killerd.jpg[/img]
[code]
Killer Elite 2011KOREAN BRRiP XviD READNFO AC3  - MiSTERE
 
http://www.imdb.com/title/tt1448755/

Video
ID                               : 0
Format                           : MPEG-4 Visual
Format profile                   : Advanced Simple@L5
Format settings, BVOP            : 2
Format settings, QPel            : No
Format settings, GMC             : No warppoints
Format settings, Matrix          : Default (H.263)
Muxing mode                      : Packed bitstream
Codec ID                         : XVID
Codec ID/Hint                    : XviD
Duration                         : 1h 56mn
Bit rate                         : 1 895 Kbps
Width                            : 720 pixels
Height                           : 304 pixels
Display aspect ratio             : 2.35:1
Frame rate                       : 29.970 fps
Color space                      : YUV
Chroma subsampling               : 4:2:0
Bit depth                        : 8 bits
Scan type                        : Progressive
Compression mode                 : Lossy
Bits/(Pixel*Frame)               : 0.289
Stream size                      : 1.54 GiB (90%)
Writing library                  : XviD 64

Audio
ID                               : 1
Format                           : AC-3
Format/Info                      : Audio Coding 3
Mode extension                   : CM (complete main)
Codec ID                         : 2000
Duration                         : 1h 56mn
Bit rate mode                    : Constant
Bit rate                         : 192 Kbps
Channel(s)                       : 2 channels
Channel positions                : Front: L R
Sampling rate                    : 48.0 KHz
Bit depth                        : 16 bits
Compression mode                 : Lossy
Stream size                      : 160 MiB (9%)
Alignment                        : Aligned on interleaves
Interleave, duration             : 33 ms (1.00 video frame)

Plot: 
When his mentor is taken captive, a retired member of Britain's Elite Special Air Service is forced into action. His mission: kill three assassins dispatched by their cunning leader.

Notes:
Sharpened Resized and tweaked RGB
*Subs hardcoded in Korean throughout
[/code]
Screens:
[img]http://img407.imageshack.us/img407/8804/43240360.png[/img]
[img]http://img510.imageshack.us/img510/1113/71321334.png[/img]
[img]http://img14.imageshack.us/img14/8695/85293349.png[/img]
[img]http://img28.imageshack.us/img28/2990/64261106.png[/img]
[img]http://img39.imageshack.us/img39/285/31424058.png[/img]
